# xmcd
# 
# Track frame offsets:
#     182
#     13480
#     28077
#     42987
#     60262
#     76967
#     92340
#     109625
#     124402
#     142437
# 
# Disc length: 2118
# 
# Revision: 5
# Processed by: cddbd v1.5.2PL0 Copyright (c) Steve Scherf et al.
# Submitted via: BonkEnc v1.0
# 
DISCID=8608440a
DTITLE=Blake Shelton - Blake Shelton
DYEAR=2001
DGENRE=Country
TTITLE0=Every Time I Look At You
TTITLE1=All Over Me
TTITLE2=She Doesn't Know She's Got It
TTITLE3=Austin
TTITLE4=Ol' Red
TTITLE5=I Thought There Was Time
TTITLE6=Same Old Song
TTITLE7=That's What I Call Home
TTITLE8=Problems At Home
TTITLE9=If I Was Your Man
EXTD=
EXTT0=
EXTT1=
EXTT2=
EXTT3=
EXTT4=
EXTT5=
EXTT6=
EXTT7=
EXTT8=
EXTT9=
PLAYORDER=
